:SAMPLES-PER-SECOND 30
:FULLY-SPECIFIED
:DEGREES
28
root  34.89566112 36.55718405 -14.60283835 9.475776672 -4.031744957 3.139012575
lowerback  -8.829238892 -0.1988372505 -0.3187491
upperback  -3.743059158 0.2246589959 -3.206957102
thorax  1.088999987 0.2645366192 -3.11371994
lowerneck  -14.66030025 -5.013599873 -3.969320059
upperneck  14.81750011 -6.979529858 6.727330208
head  7.346079826 -2.870140076 2.103070021
lclavicle  0 -4.497500157e-015 -2.743230041e-014
lhumerus  -48.21170044 31.25519943 62.81090164
lradius  0.00954947155 -6.507048965e-006 29.5890007
lwrist  3.192251654e-007 -3.790274832e-007 -28.57950211
lhand  -3.522259407e-031 -36.98699951 -10.59319973
lfingers  90 7.125020027 -90
lthumb  94.8392868 -25.42742348 101.1545105
rclavicle  0 -4.497500157e-015 -2.743230041e-014
rhumerus  -49.51620102 -31.82980156 -54.959198
rradius  -5.16745672e-007 2.214343908e-008 54.49919891
rwrist  0.0006954420824 -0.004670973402 -159.9349976
rhand  -3.03566597e-031 -2.322849989 -7.412879944
rfingers  -90 -7.125020027 -90
rthumb  -86.41201019 -8.243016243 -66.37767029
rfemur  -12.29098034 15.68629551 12.90327644
rtibia  -0.5186952949 -0.7027819753 19.72165108
rfoot  0.4609409571 -21.43462181 -36.63999939
rtoes  4.076469421 19.61110115 -101.9962006
lfemur  -8.068119049 -15.85268879 -19.97579193
ltibia  2.914815426 0.1456176639 13.56076336
lfoot  0.4258459508 -25.00161171 35.87054443
ltoes  -8.685216904 -18.08571053 -116.2003479
29
root  34.89471195 36.55690471 -14.60037682 9.476260185 -4.040264606 3.1403265
lowerback  -8.818349838 -0.1986739784 -0.3153150082
upperback  -3.744729757 0.221235007 -3.208019972
thorax  1.077800035 0.2638249993 -3.115119934
lowerneck  -14.59990025 -5.050419807 -4.046780109
upperneck  14.74610043 -7.0218997 6.787310123
head  7.319819927 -2.892450094 2.131530046
lclavicle  0 -4.497500157e-015 -2.743230041e-014
lhumerus  -48.24039841 31.20280075 62.80590057
lradius  0.00954947155 -6.507048965e-006 29.58409691
lwrist  3.192251654e-007 -3.790274832e-007 -28.51620102
lhand  -3.522214873e-031 -36.94179916 -10.60009956
lfingers  90 7.125020027 -90
lthumb  94.81964874 -25.43580246 101.1068497
rclavicle  0 -4.497500157e-015 -2.743230041e-014
rhumerus  -49.30210114 -31.31110001 -55.29610062
rradius  -5.16745672e-007 2.214343908e-008 55.78379822
rwrist  0.0006954420824 -0.004670973402 -161.2389984
rhand  -3.033915194e-031 -2.254040003 -7.439350128
rfingers  -90 -7.125020027 -90
rthumb  -86.40977478 -8.222394943 -66.31215668
rfemur  -12.29795551 15.68657112 12.89951038
rtibia  -0.5206106305 -0.6855013371 19.73235893
rfoot  0.4609045088 -21.39876747 -36.63093948
rtoes  4.056153774 19.61135674 -101.9356384
lfemur  -8.055766106 -15.87926769 -19.99375153
ltibia  2.923031807 0.1203986853 13.55242538
lfoot  0.4125475883 -24.94200897 35.86499786
ltoes  -8.652820587 -18.10082817 -116.0960388
30
root  34.89299684 36.55663137 -14.5961401 9.476473808 -4.041686535 3.137789965
lowerback  -8.815529823 -0.203805998 -0.3212419748
upperback  -3.746190786 0.2151670009 -3.21262002
thorax  1.076689959 0.2609130144 -3.117130041
lowerneck  -14.52040005 -5.09348011 -4.078400135
upperneck  14.62769985 -7.068880081 6.765180111
head  7.270319939 -2.924690008 2.125530005
lclavicle  0 -4.497500157e-015 -2.743230041e-014
lhumerus  -48.30130005 31.25979996 62.74349976
lradius  0.00954947155 -6.507048965e-006 29.57597733
lwrist  3.192251654e-007 -3.790274832e-007 -28.59309959
lhand  -3.523108897e-031 -36.98189926 -10.58370018
lfingers  90 7.125020027 -90
lthumb  94.83488464 -25.4183197 101.1482162
rclavicle  0 -4.497500157e-015 -2.743230041e-014
rhumerus  -49.05899811 -30.77149963 -55.61320114
rradius  -5.16745672e-007 2.214343908e-008 57.22090149
rwrist  0.0006954420824 -0.004670973402 -161.9459991
rhand  -3.02833081e-031 -2.331619978 -7.522240162
rfingers  -90 -7.125020027 -90
rthumb  -86.457901 -8.142381668 -66.39250946
rfemur  -12.28621578 15.69490528 12.91252518
rtibia  -0.5145070553 -0.6603960395 19.71936417
rfoot  0.4458191395 -21.35169792 -36.70595169
rtoes  4.073592663 19.6115799 -101.9876251
lfemur  -8.025341034 -15.79259872 -19.99813652
ltibia  2.947743654 0.1492635906 13.51025772
lfoot  0.403834641 -24.98581123 35.78604126
ltoes  -8.694286346 -18.08146477 -116.2295685
31
root  34.89063293 36.55640009 -14.59206258 9.475895882 -4.043501377 3.134135723
lowerback  -8.813599586 -0.2192249745 -0.347368598
upperback  -3.747231483 0.1956759989 -3.194109917
thorax  1.073699951 0.2512049973 -3.084980011
lowerneck  -14.44789982 -5.142799854 -4.182089806
upperneck  14.5291996 -7.114980221 6.770840168
head  7.232220173 -2.957590103 2.14022994
lclavicle  0 -4.497500157e-015 -2.743230041e-014
lhumerus  -48.37620163 31.31019974 62.69580078
lradius  0.00954947155 -6.507048965e-006 29.57431221
lwrist  3.192251654e-007 -3.790274832e-007 -28.62050056
lhand  -3.527241064e-031 -36.95119858 -10.53829956
lfingers  90 7.125020027 -90
lthumb  94.81083679 -25.374897 101.1111679
rclavicle  0 -4.497500157e-015 -2.743230041e-014
rhumerus  -48.68889999 -30.08939934 -56.03820038
rradius  -5.16745672e-007 2.214343908e-008 58.61289978
rwrist  0.0006954420824 -0.004670973402 -162.8939972
rhand  -3.03745187e-031 -2.314559937 -7.386290073
rfingers  -90 -7.125020027 -90
rthumb  -86.39967346 -8.267800331 -66.36799622
rfemur  -12.26848412 15.69767284 12.91877365
rtibia  -0.5058206916 -0.6659240127 19.70191383
rfoot  0.4949595332 -21.36200714 -36.5963974
rtoes  4.083997726 19.61177254 -102.0186462
lfemur  -7.984221458 -15.77651405 -20.01776314
ltibia  2.97728157 0.1462104619 13.46332359
lfoot  0.3899612725 -24.95516205 35.74946976
ltoes  -8.736796379 -18.06149292 -116.3666077
32
root  34.88827202 36.5562469 -14.58725216 9.474004745 -4.045273781 3.132097244
lowerback  -8.805839539 -0.2272280157 -0.3627018631
upperback  -3.747639894 0.1862999946 -3.19204998
thorax  1.064829946 0.2467450052 -3.075059891
lowerneck  -14.36159992 -5.203219891 -4.234560013
upperneck  14.4066 -7.186480045 6.781270027
head  7.183849812 -2.99951005 2.145760059
lclavicle  0 -4.497500157e-015 -2.743230041e-014
lhumerus  -48.41270065 31.29470062 62.66659927
lradius  0.00954947155 -6.507048965e-006 29.57081985
lwrist  3.192251654e-007 -3.790274832e-007 -28.64819908
lhand  -3.526441704e-031 -36.97629929 -10.54440022
lfingers  90 7.125020027 -90
lthumb  94.82388306 -25.38002014 101.1386337
rclavicle  0 -4.497500157e-015 -2.743230041e-014
rhumerus  -48.3689003 -29.49440002 -56.3893013
rradius  -5.16745672e-007 2.214343908e-008 60.20610046
rwrist  0.0006954420824 -0.004670973402 -163.3899994
rhand  -3.041662698e-031 -2.216109991 -7.323999882
rfingers  -90 -7.125020027 -90
rthumb  -86.35572815 -8.329972267 -66.26843262
rfemur  -12.25167179 15.67713451 12.91705227
rtibia  -0.4946340024 -0.6587652564 19.69064331
rfoot  0.5101184249 -21.3563652 -36.55683136
rtoes  4.056864262 19.61193466 -101.9377518
lfemur  -7.950781345 -15.80922794 -20.03389931
ltibia  2.998849392 0.1308847666 13.42980862
lfoot  0.3815035522 -24.90402985 35.75451279
ltoes  -8.727834702 -18.06571388 -116.3377075
